<?xml version="1.0" encoding="UTF-8"?>
<!DOCTYPE svg PUBLIC "-//W3C//DTD SVG 1.1//EN" "http://www.w3.org/Graphics/SVG/1.1/DTD/svg11.dtd">
<svg version="1.1" xmlns="http://www.w3.org/2000/svg" xmlns:xlink="http://www.w3.org/1999/xlink" x="0" y="0" width="143" height="33" viewBox="0, 0, 143, 33">
  <g id="Layer_1">
    <path d="M6.189,7.843 C6.158,7.898 6.172,7.968 6.222,8.006 C6.245,8.024 6.273,8.033 6.3,8.033 C6.332,8.033 6.364,8.021 6.389,7.997 C10.145,4.341 14.041,2.488 17.967,2.488 C21.361,2.488 24.899,3.871 28.48,6.6 C28.503,6.617 28.53,6.626 28.557,6.626 L28.56,6.626 C28.63,6.626 28.687,6.569 28.687,6.498 C28.687,6.463 28.673,6.431 28.649,6.408 C25.899,2.502 22.209,0.575 17.667,0.675 C12.669,0.79 8.807,3.201 6.189,7.843" fill="#F42635"/>
    <path d="M27.895,7.661 C25.322,5.104 22.273,3.807 18.833,3.807 C17.543,3.807 16.177,3.991 14.773,4.352 C14.711,4.368 14.671,4.427 14.678,4.49 C14.685,4.553 14.737,4.601 14.8,4.603 C19.69,4.767 23.536,6.105 26.231,8.581 C28.918,11.051 30.562,14.746 31.117,19.563 C31.124,19.626 31.176,19.673 31.239,19.676 C31.24,19.676 31.242,19.676 31.244,19.676 C31.304,19.676 31.357,19.633 31.369,19.573 C32.287,14.872 31.118,10.864 27.895,7.661" fill="#F42635"/>
    <path d="M28.562,13.751 C28.501,13.767 28.461,13.826 28.468,13.889 C29.027,18.749 28.271,22.75 26.219,25.78 C24.173,28.802 20.761,30.973 16.078,32.232 C16.018,32.248 15.978,32.306 15.985,32.369 C15.992,32.431 16.043,32.479 16.106,32.482 C16.364,32.494 16.623,32.5 16.876,32.5 C21.3,32.5 24.832,30.747 27.375,27.29 C30.337,23.264 30.787,18.733 28.712,13.824 C28.687,13.766 28.623,13.735 28.562,13.751" fill="#F42635"/>
    <path d="M26.27,22.88 C26.295,22.822 26.273,22.754 26.219,22.721 C26.165,22.688 26.095,22.7 26.055,22.749 C22.323,27.264 18.178,29.553 13.736,29.553 L13.735,29.553 C10.766,29.553 7.572,28.535 4.243,26.528 C4.189,26.495 4.119,26.507 4.079,26.555 C4.039,26.603 4.04,26.674 4.081,26.721 C6.792,29.807 10.056,31.372 13.782,31.372 C14.386,31.372 15.009,31.33 15.634,31.248 C20.59,30.593 24.169,27.778 26.27,22.88" fill="#F42635"/>
    <path d="M11.438,27.708 C11.439,27.708 11.44,27.708 11.44,27.708 C11.511,27.708 11.568,27.651 11.568,27.581 C11.568,27.524 11.53,27.475 11.479,27.459 C7.053,25.388 4.047,22.649 2.544,19.317 C1.043,15.99 0.982,11.947 2.365,7.299 C2.383,7.239 2.354,7.174 2.298,7.148 C2.24,7.12 2.173,7.139 2.138,7.191 C-0.554,11.153 -1.054,15.298 0.652,19.509 C2.528,24.143 6.151,26.901 11.419,27.707 C11.425,27.708 11.432,27.708 11.438,27.708" fill="#F42635"/>
    <path d="M5.14,20.668 C5.165,20.703 5.204,20.722 5.244,20.722 C5.245,20.722 5.246,20.722 5.247,20.722 C5.317,20.722 5.374,20.665 5.374,20.595 C5.374,20.571 5.368,20.55 5.357,20.531 C3.787,15.909 3.68,11.846 5.039,8.455 C6.397,5.067 9.271,2.221 13.58,-0.003 C13.636,-0.031 13.662,-0.097 13.643,-0.156 C13.623,-0.216 13.562,-0.253 13.5,-0.241 C8.779,0.564 5.444,3.076 3.589,7.224 C1.549,11.788 2.07,16.311 5.14,20.668" fill="#F42635"/>
    <path d="M51.062,17.031 C50.649,16.725 50.159,16.481 49.624,16.481 C48.553,16.481 47.711,17.307 47.711,18.393 C47.711,19.525 48.522,20.321 49.67,20.321 C50.159,20.321 50.695,20.122 51.062,19.786 L51.062,22.142 C50.45,22.448 49.777,22.586 49.103,22.586 C46.778,22.586 44.834,20.856 44.834,18.485 C44.834,15.96 46.762,14.215 49.226,14.215 C49.869,14.215 50.512,14.369 51.062,14.674 z" fill="#F42635"/>
    <path d="M54.72,18.408 C54.72,19.403 55.378,20.168 56.511,20.168 C57.643,20.168 58.301,19.403 58.301,18.408 C58.301,17.444 57.643,16.633 56.511,16.633 C55.378,16.633 54.72,17.444 54.72,18.408 M60.994,22.325 L58.209,22.325 L58.209,21.453 L58.178,21.453 C57.689,22.233 56.725,22.585 55.807,22.585 C53.481,22.585 51.843,20.642 51.843,18.393 C51.843,16.144 53.45,14.215 55.776,14.215 C56.679,14.215 57.628,14.552 58.209,15.241 L58.209,14.475 L60.994,14.475 z" fill="#F42635"/>
    <path d="M65.248,22.325 L62.463,22.325 L62.463,9.625 L65.248,9.625 z" fill="#F42635"/>
    <path d="M69.12,18.408 C69.12,19.403 69.778,20.168 70.911,20.168 C72.043,20.168 72.701,19.403 72.701,18.408 C72.701,17.444 72.043,16.633 70.911,16.633 C69.778,16.633 69.12,17.444 69.12,18.408 M72.609,21.453 L72.578,21.453 C72.089,22.233 71.124,22.585 70.207,22.585 C67.881,22.585 66.243,20.642 66.243,18.393 C66.243,16.144 67.85,14.215 70.176,14.215 C71.079,14.215 72.028,14.552 72.609,15.241 L72.609,9.625 L75.394,9.625 L75.394,22.325 L72.609,22.325 z" fill="#F42635"/>
    <path d="M82.235,17.261 C82.097,16.511 81.408,16.022 80.659,16.022 C79.847,16.022 79.175,16.45 79.006,17.261 z M84.821,18.867 L78.96,18.867 C78.96,20 79.557,20.612 80.704,20.612 C81.301,20.612 81.73,20.413 82.036,19.893 L84.714,19.893 C84.499,20.811 83.949,21.484 83.23,21.928 C82.511,22.371 81.623,22.586 80.72,22.586 C78.119,22.586 76.175,21.117 76.175,18.408 C76.175,15.792 77.965,14.215 80.521,14.215 C83.245,14.215 84.821,15.899 84.821,18.576 z" fill="#F42635"/>
    <path d="M88.494,15.761 L88.524,15.761 C89.06,14.796 89.978,14.368 91.064,14.368 L91.6,14.368 L91.6,17.046 C91.218,16.832 90.85,16.786 90.422,16.786 C88.876,16.786 88.494,17.811 88.494,19.158 L88.494,22.325 L85.709,22.325 L85.709,14.475 L88.494,14.475 z" fill="#F42635"/>
    <path d="M94.569,18.408 C94.569,19.403 95.227,20.168 96.36,20.168 C97.492,20.168 98.15,19.403 98.15,18.408 C98.15,17.444 97.492,16.633 96.36,16.633 C95.227,16.633 94.569,17.444 94.569,18.408 M100.843,22.325 L98.058,22.325 L98.058,21.453 L98.027,21.453 C97.538,22.233 96.574,22.585 95.656,22.585 C93.33,22.585 91.692,20.642 91.692,18.393 C91.692,16.144 93.299,14.215 95.625,14.215 C96.528,14.215 97.477,14.552 98.058,15.241 L98.058,14.475 L100.843,14.475 z" fill="#F42635"/>
    <path d="M109.965,22.325 L107.18,22.325 L107.18,9.625 L109.965,9.625 z" fill="#F42635"/>
    <path d="M113.729,18.408 C113.729,19.403 114.387,20.168 115.519,20.168 C116.652,20.168 117.31,19.403 117.31,18.408 C117.31,17.444 116.652,16.633 115.519,16.633 C114.387,16.633 113.729,17.444 113.729,18.408 M120.003,22.325 L117.217,22.325 L117.217,21.453 L117.187,21.453 C116.697,22.233 115.733,22.585 114.815,22.585 C112.49,22.585 110.852,20.642 110.852,18.393 C110.852,16.144 112.459,14.215 114.785,14.215 C115.688,14.215 116.636,14.552 117.217,15.241 L117.217,14.475 L120.003,14.475 z" fill="#F42635"/>
    <path d="M124.075,18.408 C124.075,19.403 124.733,20.168 125.865,20.168 C126.998,20.168 127.656,19.403 127.656,18.408 C127.656,17.444 126.998,16.633 125.865,16.633 C124.733,16.633 124.075,17.444 124.075,18.408 M121.382,9.625 L124.166,9.625 L124.166,15.241 C124.763,14.552 125.697,14.215 126.6,14.215 C128.926,14.215 130.532,16.144 130.532,18.393 C130.532,20.658 128.911,22.585 126.569,22.585 C125.651,22.585 124.702,22.233 124.197,21.453 L124.166,21.453 L124.166,22.325 L121.382,22.325 z" fill="#F42635"/>
    <path d="M136.715,16.495 C136.287,16.266 135.69,16.113 135.215,16.113 C134.894,16.113 134.344,16.25 134.344,16.648 C134.344,17.184 135.215,17.261 135.598,17.337 C136.898,17.597 137.878,18.209 137.878,19.663 C137.878,21.728 135.996,22.585 134.175,22.585 C133.058,22.585 131.956,22.264 131.008,21.683 L132.017,19.74 C132.584,20.137 133.532,20.535 134.221,20.535 C134.573,20.535 135.093,20.367 135.093,19.939 C135.093,19.326 134.221,19.295 133.349,19.066 C132.476,18.836 131.605,18.408 131.605,17 C131.605,15.072 133.349,14.215 135.063,14.215 C135.95,14.215 136.837,14.353 137.649,14.72 z" fill="#F42635"/>
    <path d="M142.5,20.841 C142.5,21.82 141.704,22.631 140.709,22.631 C139.715,22.631 138.919,21.82 138.919,20.841 C138.919,19.846 139.715,19.05 140.709,19.05 C141.704,19.05 142.5,19.846 142.5,20.841" fill="#F42635"/>
  </g>
</svg>
